<mxfile host="app.diagrams.net" modified="2024-06-05T01:04:18.764Z" agent="Mozilla/5.0 (Windows NT 10.0; Win64; x64) AppleWebKit/537.36 (KHTML, like Gecko) Chrome/123.0.0.0 Safari/537.36" etag="u6wyr8KrYAF1oxfOVoi_" version="24.4.13" type="device">
  <diagram name="Страница — 1" id="1ygixu2kk3eObPGyAaGn">
    <mxGraphModel dx="1235" dy="665" grid="1" gridSize="10" guides="1" tooltips="1" connect="1" arrows="1" fold="1" page="1" pageScale="1" pageWidth="827" pageHeight="1169" math="0" shadow="0">
      <root>
        <mxCell id="0" />
        <mxCell id="1" parent="0" />
        <mxCell id="LgnvfIZZV-pi6wr40v2--1" value="Клиент&lt;div&gt;&lt;br&gt;&lt;/div&gt;" style="shape=umlActor;verticalLabelPosition=bottom;verticalAlign=top;html=1;outlineConnect=0;" vertex="1" parent="1">
          <mxGeometry x="20" y="150" width="30" height="60" as="geometry" />
        </mxCell>
        <mxCell id="LgnvfIZZV-pi6wr40v2--2" value="Тех. Поддержка" style="shape=umlActor;verticalLabelPosition=bottom;verticalAlign=top;html=1;outlineConnect=0;" vertex="1" parent="1">
          <mxGeometry x="770" y="150" width="30" height="60" as="geometry" />
        </mxCell>
        <mxCell id="LgnvfIZZV-pi6wr40v2--3" value="Банк" style="shape=umlActor;verticalLabelPosition=bottom;verticalAlign=top;html=1;outlineConnect=0;" vertex="1" parent="1">
          <mxGeometry x="20" y="500" width="30" height="60" as="geometry" />
        </mxCell>
        <mxCell id="LgnvfIZZV-pi6wr40v2--4" value="Курьер" style="shape=umlActor;verticalLabelPosition=bottom;verticalAlign=top;html=1;outlineConnect=0;" vertex="1" parent="1">
          <mxGeometry x="770" y="320" width="30" height="60" as="geometry" />
        </mxCell>
        <mxCell id="LgnvfIZZV-pi6wr40v2--5" value="Ресторан" style="shape=umlActor;verticalLabelPosition=bottom;verticalAlign=top;html=1;outlineConnect=0;" vertex="1" parent="1">
          <mxGeometry x="770" y="500" width="30" height="60" as="geometry" />
        </mxCell>
        <mxCell id="LgnvfIZZV-pi6wr40v2--7" value="" style="rounded=1;whiteSpace=wrap;html=1;" vertex="1" parent="1">
          <mxGeometry x="80" y="60" width="660" height="530" as="geometry" />
        </mxCell>
        <mxCell id="LgnvfIZZV-pi6wr40v2--10" value="&lt;font style=&quot;font-size: 19px;&quot;&gt;Система доставки еды&lt;/font&gt;" style="text;html=1;align=center;verticalAlign=middle;whiteSpace=wrap;rounded=0;" vertex="1" parent="1">
          <mxGeometry x="130" y="70" width="230" height="50" as="geometry" />
        </mxCell>
        <mxCell id="LgnvfIZZV-pi6wr40v2--12" value="Оформить заказ" style="rounded=1;whiteSpace=wrap;html=1;" vertex="1" parent="1">
          <mxGeometry x="140" y="150" width="120" height="60" as="geometry" />
        </mxCell>
        <mxCell id="LgnvfIZZV-pi6wr40v2--13" value="Обратиться в тех. поддержку" style="rounded=1;whiteSpace=wrap;html=1;" vertex="1" parent="1">
          <mxGeometry x="140" y="250" width="120" height="60" as="geometry" />
        </mxCell>
        <mxCell id="LgnvfIZZV-pi6wr40v2--14" value="Оплата заказа" style="rounded=1;whiteSpace=wrap;html=1;" vertex="1" parent="1">
          <mxGeometry x="140" y="440" width="120" height="60" as="geometry" />
        </mxCell>
        <mxCell id="LgnvfIZZV-pi6wr40v2--15" value="Отслеживать заказ" style="rounded=1;whiteSpace=wrap;html=1;" vertex="1" parent="1">
          <mxGeometry x="140" y="340" width="120" height="60" as="geometry" />
        </mxCell>
        <mxCell id="LgnvfIZZV-pi6wr40v2--18" value="" style="endArrow=none;html=1;rounded=0;entryX=0;entryY=0.5;entryDx=0;entryDy=0;" edge="1" parent="1" source="LgnvfIZZV-pi6wr40v2--1" target="LgnvfIZZV-pi6wr40v2--12">
          <mxGeometry width="50" height="50" relative="1" as="geometry">
            <mxPoint x="130" y="260" as="sourcePoint" />
            <mxPoint x="180" y="210" as="targetPoint" />
          </mxGeometry>
        </mxCell>
        <mxCell id="LgnvfIZZV-pi6wr40v2--20" value="" style="endArrow=none;html=1;rounded=0;entryX=0;entryY=0.5;entryDx=0;entryDy=0;" edge="1" parent="1" source="LgnvfIZZV-pi6wr40v2--1" target="LgnvfIZZV-pi6wr40v2--13">
          <mxGeometry width="50" height="50" relative="1" as="geometry">
            <mxPoint x="130" y="260" as="sourcePoint" />
            <mxPoint x="180" y="210" as="targetPoint" />
          </mxGeometry>
        </mxCell>
        <mxCell id="LgnvfIZZV-pi6wr40v2--21" value="" style="endArrow=none;html=1;rounded=0;entryX=0;entryY=0.5;entryDx=0;entryDy=0;" edge="1" parent="1" source="LgnvfIZZV-pi6wr40v2--1" target="LgnvfIZZV-pi6wr40v2--15">
          <mxGeometry width="50" height="50" relative="1" as="geometry">
            <mxPoint x="130" y="330" as="sourcePoint" />
            <mxPoint x="180" y="280" as="targetPoint" />
          </mxGeometry>
        </mxCell>
        <mxCell id="LgnvfIZZV-pi6wr40v2--22" value="" style="endArrow=none;html=1;rounded=0;entryX=0;entryY=0.5;entryDx=0;entryDy=0;" edge="1" parent="1" source="LgnvfIZZV-pi6wr40v2--1" target="LgnvfIZZV-pi6wr40v2--14">
          <mxGeometry width="50" height="50" relative="1" as="geometry">
            <mxPoint x="130" y="460" as="sourcePoint" />
            <mxPoint x="180" y="410" as="targetPoint" />
          </mxGeometry>
        </mxCell>
        <mxCell id="LgnvfIZZV-pi6wr40v2--23" value="" style="endArrow=none;html=1;rounded=0;entryX=0.5;entryY=0.5;entryDx=0;entryDy=0;entryPerimeter=0;exitX=0;exitY=0.5;exitDx=0;exitDy=0;" edge="1" parent="1" source="LgnvfIZZV-pi6wr40v2--14" target="LgnvfIZZV-pi6wr40v2--3">
          <mxGeometry width="50" height="50" relative="1" as="geometry">
            <mxPoint x="130" y="460" as="sourcePoint" />
            <mxPoint x="180" y="410" as="targetPoint" />
          </mxGeometry>
        </mxCell>
        <mxCell id="LgnvfIZZV-pi6wr40v2--24" value="Регистрация" style="rounded=1;whiteSpace=wrap;html=1;" vertex="1" parent="1">
          <mxGeometry x="370" y="150" width="120" height="60" as="geometry" />
        </mxCell>
        <mxCell id="LgnvfIZZV-pi6wr40v2--25" value="" style="endArrow=classic;html=1;rounded=0;exitX=0;exitY=0.5;exitDx=0;exitDy=0;entryX=1;entryY=0.5;entryDx=0;entryDy=0;" edge="1" parent="1" source="LgnvfIZZV-pi6wr40v2--24" target="LgnvfIZZV-pi6wr40v2--12">
          <mxGeometry relative="1" as="geometry">
            <mxPoint x="110" y="230" as="sourcePoint" />
            <mxPoint x="210" y="230" as="targetPoint" />
          </mxGeometry>
        </mxCell>
        <mxCell id="LgnvfIZZV-pi6wr40v2--26" value="include" style="edgeLabel;resizable=0;html=1;;align=center;verticalAlign=middle;" connectable="0" vertex="1" parent="LgnvfIZZV-pi6wr40v2--25">
          <mxGeometry relative="1" as="geometry" />
        </mxCell>
        <mxCell id="LgnvfIZZV-pi6wr40v2--27" value="Составить заказ" style="rounded=1;whiteSpace=wrap;html=1;" vertex="1" parent="1">
          <mxGeometry x="370" y="250" width="120" height="60" as="geometry" />
        </mxCell>
        <mxCell id="LgnvfIZZV-pi6wr40v2--28" value="" style="endArrow=classic;html=1;rounded=0;exitX=0;exitY=0.5;exitDx=0;exitDy=0;" edge="1" parent="1" source="LgnvfIZZV-pi6wr40v2--27" target="LgnvfIZZV-pi6wr40v2--12">
          <mxGeometry relative="1" as="geometry">
            <mxPoint x="320" y="300" as="sourcePoint" />
            <mxPoint x="420" y="300" as="targetPoint" />
          </mxGeometry>
        </mxCell>
        <mxCell id="LgnvfIZZV-pi6wr40v2--29" value="include" style="edgeLabel;resizable=0;html=1;;align=center;verticalAlign=middle;" connectable="0" vertex="1" parent="LgnvfIZZV-pi6wr40v2--28">
          <mxGeometry relative="1" as="geometry" />
        </mxCell>
        <mxCell id="LgnvfIZZV-pi6wr40v2--33" value="" style="endArrow=none;html=1;rounded=0;" edge="1" parent="1" source="LgnvfIZZV-pi6wr40v2--15" target="LgnvfIZZV-pi6wr40v2--4">
          <mxGeometry width="50" height="50" relative="1" as="geometry">
            <mxPoint x="330" y="380" as="sourcePoint" />
            <mxPoint x="380" y="330" as="targetPoint" />
            <Array as="points">
              <mxPoint x="490" y="370" />
            </Array>
          </mxGeometry>
        </mxCell>
        <mxCell id="LgnvfIZZV-pi6wr40v2--34" value="" style="endArrow=none;html=1;rounded=0;" edge="1" parent="1" source="LgnvfIZZV-pi6wr40v2--13" target="LgnvfIZZV-pi6wr40v2--2">
          <mxGeometry width="50" height="50" relative="1" as="geometry">
            <mxPoint x="500" y="380" as="sourcePoint" />
            <mxPoint x="550" y="330" as="targetPoint" />
            <Array as="points">
              <mxPoint x="340" y="330" />
              <mxPoint x="570" y="330" />
            </Array>
          </mxGeometry>
        </mxCell>
        <mxCell id="LgnvfIZZV-pi6wr40v2--35" value="Взятие заказа в работу" style="rounded=1;whiteSpace=wrap;html=1;" vertex="1" parent="1">
          <mxGeometry x="570" y="440" width="120" height="60" as="geometry" />
        </mxCell>
        <mxCell id="LgnvfIZZV-pi6wr40v2--36" value="" style="endArrow=none;html=1;rounded=0;" edge="1" parent="1" source="LgnvfIZZV-pi6wr40v2--35" target="LgnvfIZZV-pi6wr40v2--5">
          <mxGeometry width="50" height="50" relative="1" as="geometry">
            <mxPoint x="500" y="380" as="sourcePoint" />
            <mxPoint x="550" y="330" as="targetPoint" />
          </mxGeometry>
        </mxCell>
        <mxCell id="LgnvfIZZV-pi6wr40v2--37" value="" style="endArrow=none;html=1;rounded=0;" edge="1" parent="1" source="LgnvfIZZV-pi6wr40v2--35" target="LgnvfIZZV-pi6wr40v2--4">
          <mxGeometry width="50" height="50" relative="1" as="geometry">
            <mxPoint x="500" y="470" as="sourcePoint" />
            <mxPoint x="550" y="420" as="targetPoint" />
          </mxGeometry>
        </mxCell>
        <mxCell id="LgnvfIZZV-pi6wr40v2--38" value="" style="endArrow=none;html=1;rounded=0;" edge="1" parent="1" source="LgnvfIZZV-pi6wr40v2--13" target="LgnvfIZZV-pi6wr40v2--4">
          <mxGeometry width="50" height="50" relative="1" as="geometry">
            <mxPoint x="390" y="380" as="sourcePoint" />
            <mxPoint x="440" y="330" as="targetPoint" />
            <Array as="points">
              <mxPoint x="320" y="350" />
            </Array>
          </mxGeometry>
        </mxCell>
        <mxCell id="LgnvfIZZV-pi6wr40v2--39" value="Оставить чаевые" style="rounded=1;whiteSpace=wrap;html=1;" vertex="1" parent="1">
          <mxGeometry x="370" y="440" width="120" height="60" as="geometry" />
        </mxCell>
        <mxCell id="LgnvfIZZV-pi6wr40v2--41" value="" style="endArrow=classic;html=1;rounded=0;" edge="1" parent="1" source="LgnvfIZZV-pi6wr40v2--39" target="LgnvfIZZV-pi6wr40v2--14">
          <mxGeometry relative="1" as="geometry">
            <mxPoint x="360" y="360" as="sourcePoint" />
            <mxPoint x="460" y="360" as="targetPoint" />
          </mxGeometry>
        </mxCell>
        <mxCell id="LgnvfIZZV-pi6wr40v2--42" value="extend" style="edgeLabel;resizable=0;html=1;;align=center;verticalAlign=middle;" connectable="0" vertex="1" parent="LgnvfIZZV-pi6wr40v2--41">
          <mxGeometry relative="1" as="geometry" />
        </mxCell>
        <mxCell id="LgnvfIZZV-pi6wr40v2--45" value="" style="endArrow=none;html=1;rounded=0;" edge="1" parent="1" source="LgnvfIZZV-pi6wr40v2--15" target="LgnvfIZZV-pi6wr40v2--5">
          <mxGeometry width="50" height="50" relative="1" as="geometry">
            <mxPoint x="290" y="410" as="sourcePoint" />
            <mxPoint x="340" y="360" as="targetPoint" />
            <Array as="points">
              <mxPoint x="510" y="410" />
              <mxPoint x="510" y="530" />
            </Array>
          </mxGeometry>
        </mxCell>
        <mxCell id="LgnvfIZZV-pi6wr40v2--46" value="Назначение курьера на заказ" style="rounded=1;whiteSpace=wrap;html=1;" vertex="1" parent="1">
          <mxGeometry x="530" y="190" width="120" height="60" as="geometry" />
        </mxCell>
        <mxCell id="LgnvfIZZV-pi6wr40v2--47" value="" style="endArrow=none;html=1;rounded=0;" edge="1" parent="1" source="LgnvfIZZV-pi6wr40v2--46" target="LgnvfIZZV-pi6wr40v2--2">
          <mxGeometry width="50" height="50" relative="1" as="geometry">
            <mxPoint x="290" y="300" as="sourcePoint" />
            <mxPoint x="340" y="250" as="targetPoint" />
          </mxGeometry>
        </mxCell>
        <mxCell id="LgnvfIZZV-pi6wr40v2--48" value="" style="endArrow=none;html=1;rounded=0;" edge="1" parent="1" source="LgnvfIZZV-pi6wr40v2--4" target="LgnvfIZZV-pi6wr40v2--46">
          <mxGeometry width="50" height="50" relative="1" as="geometry">
            <mxPoint x="290" y="300" as="sourcePoint" />
            <mxPoint x="340" y="250" as="targetPoint" />
          </mxGeometry>
        </mxCell>
      </root>
    </mxGraphModel>
  </diagram>
</mxfile>
